# xmcd
#
# Track frame offsets:
#	150
#	7437
#	27550
#	41575
#	60875
#	79237
#	97825
#	116897
#	137325
#	160925
#
# Disc length: 2442 seconds
#
# Revision: 1
# Processed by: cddbd v1.5PL3 Copyright (c) Steve Scherf et al.
# Submitted via: CDex 1.50Beta5
#
DISCID=7c09880a
DTITLE=松岡英明 - Divine Design
DYEAR=1900
DGENRE=Pop
TTITLE0=Scene from Paradise
TTITLE1=Dance in Versailles
TTITLE2=Dual Personality
TTITLE3=Young Pirates
TTITLE4=Bad Bad Bad
TTITLE5=Let Me Alone
TTITLE6=Don't Look Back
TTITLE7=Perfect Crime
TTITLE8=Around the World~Glamorous Field~
TTITLE9=Divine Design
EXTD=
EXTT0=
EXTT1=
EXTT2=
EXTT3=
EXTT4=
EXTT5=
EXTT6=
EXTT7=
EXTT8=
EXTT9=
PLAYORDER=
